<svg width="120" height="120" version="1.1" xmlns="http://www.w3.org/2000/svg" desc="Created with imagetracer.js version 1.2.5" ><path fill="rgb(255,255,0)" stroke="rgb(255,255,0)" stroke-width="1" opacity="1" d="M 45 10 Q 102.5 2.5 110 45 Q 117.5 102.5 75 110 Q 17.5 117.5 10 75 Q 2.5 17.5 45 10 Z M 30 40 Q 20 70 50 60 Q 60 30 30 40 Z M 70 40 Q 60 70 90 60 Q 100 30 70 40 Z M 45 80 L 45 90 L 80 85 L 45 80 Z " /><path fill="rgb(0,0,0)" stroke="rgb(0,0,0)" stroke-width="1" opacity="1" d="M 0 0 L 120 0 L 120 120 L 0 120 L 0 0 Z M 45 10 Q 3 18 10 75 Q 18 118 75 110 Q 118 103 110 45 Q 103 3 45 10 Z " /><path fill="rgb(0,0,0)" stroke="rgb(0,0,0)" stroke-width="1" opacity="1" d="M 30 40 Q 60 30 50 60 Q 20 70 30 40 Z " /><path fill="rgb(0,0,0)" stroke="rgb(0,0,0)" stroke-width="1" opacity="1" d="M 70 40 Q 100 30 90 60 Q 60 70 70 40 Z " /><path fill="rgb(0,0,0)" stroke="rgb(0,0,0)" stroke-width="1" opacity="1" d="M 35 70 L 75 80 L 90 75 Q 82.5 97.5 45 90 L 35 70 Z " /></svg>