<svg width="240" height="240" version="1.1" xmlns="http://www.w3.org/2000/svg" desc="Created with imagetracer.js version 1.2.5" ><path fill="rgb(255,255,0)" stroke="rgb(255,255,0)" stroke-width="1" opacity="1" d="M 90 20 Q 205 5 220 90 Q 235 205 150 220 Q 35 235 20 150 Q 5 35 90 20 Z M 60 80 Q 40 140 100 120 Q 120 60 60 80 Z M 140 80 Q 120 140 180 120 Q 200 60 140 80 Z M 90 160 L 90 180 L 160 170 L 90 160 Z " /><path fill="rgb(0,0,0)" stroke="rgb(0,0,0)" stroke-width="1" opacity="1" d="M 0 0 L 240 0 L 240 240 L 0 240 L 0 0 Z M 90 20 Q 5 35 20 150 Q 35 235 150 220 Q 235 205 220 90 Q 205 5 90 20 Z " /><path fill="rgb(0,0,0)" stroke="rgb(0,0,0)" stroke-width="1" opacity="1" d="M 60 80 Q 120 60 100 120 Q 40 140 60 80 Z " /><path fill="rgb(0,0,0)" stroke="rgb(0,0,0)" stroke-width="1" opacity="1" d="M 140 80 Q 200 60 180 120 Q 120 140 140 80 Z " /><path fill="rgb(0,0,0)" stroke="rgb(0,0,0)" stroke-width="1" opacity="1" d="M 70 140 L 150 160 L 180 150 Q 165 195 90 180 L 70 140 Z " /></svg>